<svg width="21" height="22" viewBox="0 0 21 22" fill="none" xmlns="http://www.w3.org/2000/svg">
<path d="M14.693 20.99C14.5981 20.9967 14.5031 21.0001 14.408 21M9.734 21H5C4.45069 21 3.90726 20.8869 3.40358 20.6677C2.8999 20.4485 2.44677 20.1279 2.07243 19.7259C1.6981 19.3238 1.41057 18.849 1.22778 18.331C1.045 17.813 0.970861 17.2629 1.01 16.715L1.704 7H7.101M5 7V4.5C4.99986 3.93013 5.13886 3.36884 5.40495 2.8649C5.67103 2.36096 6.05614 1.92962 6.52682 1.60834C6.9975 1.28707 7.5395 1.08558 8.10575 1.02139C8.67199 0.957197 9.24535 1.03224 9.776 1.24M11.5 1C12.4283 1 13.3185 1.36875 13.9749 2.02513C14.6313 2.6815 15 3.57174 15 4.5V7H8V4.5C8 3.57174 8.36875 2.6815 9.02513 2.02513C9.6815 1.36875 10.5717 1 11.5 1ZM-2 -1H22V23H-2V-1ZM4.92 7H19.08L19.697 16.748C19.7314 17.2934 19.6537 17.8401 19.4687 18.3543C19.2836 18.8686 18.9952 19.3394 18.6211 19.7379C18.2471 20.1363 17.7953 20.4538 17.2938 20.6709C16.7922 20.888 16.2515 21 15.705 21H8.295C7.74849 21 7.20778 20.888 6.70623 20.6709C6.20469 20.4538 5.75294 20.1363 5.37887 19.7379C5.00481 19.3394 4.71635 18.8686 4.53131 18.3543C4.34627 17.8401 4.26857 17.2934 4.303 16.748L4.92 7Z" stroke="white" stroke-width="1.5"/>
</svg>
