<svg width="24" height="24" viewBox="0 0 24 24" fill="none" xmlns="http://www.w3.org/2000/svg">
<path d="M11.5 1.75C12.6935 1.75 13.8381 2.22411 14.682 3.06802C15.5259 3.91193 16 5.05653 16 6.25C16 7.44347 15.5259 8.58807 14.682 9.43198C13.8381 10.2759 12.6935 10.75 11.5 10.75C10.3065 10.75 9.16193 10.2759 8.31802 9.43198C7.47411 8.58807 7 7.44347 7 6.25C7 5.05653 7.47411 3.91193 8.31802 3.06802C9.16193 2.22411 10.3065 1.75 11.5 1.75ZM11.5001 21.25H11.5001H11.4999H11.4999H11.4988L11.4939 21.25L11.4729 21.2499L11.3883 21.2494C11.3136 21.2488 11.2032 21.2475 11.0622 21.245C10.7801 21.24 10.376 21.2299 9.8906 21.2096C8.91795 21.1691 7.62772 21.0883 6.34303 20.9277C5.04707 20.7657 3.80455 20.5281 2.90397 20.1903C2.45128 20.0206 2.1356 19.8438 1.94505 19.677C1.76414 19.5187 1.75 19.4216 1.75 19.375C1.75 18.1908 2.75339 16.7467 4.63572 15.5446C6.47274 14.3714 8.95852 13.5625 11.5 13.5625C14.0415 13.5625 16.5273 14.3714 18.3643 15.5446C20.2466 16.7467 21.25 18.1908 21.25 19.375C21.25 19.4216 21.2359 19.5187 21.0549 19.677C20.8644 19.8438 20.5487 20.0206 20.096 20.1903C19.1954 20.5281 17.9529 20.7657 16.657 20.9277C15.3723 21.0883 14.0821 21.1691 13.1094 21.2096C12.624 21.2299 12.2199 21.24 11.9378 21.245C11.7968 21.2475 11.6864 21.2488 11.6117 21.2494L11.5271 21.2499L11.5061 21.25L11.5012 21.25H11.5001Z" stroke="white" stroke-width="1.5"/>
</svg>
